<svg xmlns="http://www.w3.org/2000/svg" xmlns:xlink="http://www.w3.org/1999/xlink" width="500" zoomAndPan="magnify" viewBox="0 0 375 374.999991" height="500" preserveAspectRatio="xMidYMid meet" version="1.0"><defs><g/><clipPath id="c04239af48"><path d="M 227 78 L 306.535156 78 L 306.535156 155 L 227 155 Z M 227 78 " clip-rule="nonzero"/></clipPath><clipPath id="43124c523e"><path d="M 153 154 L 231 154 L 231 236.988281 L 153 236.988281 Z M 153 154 " clip-rule="nonzero"/></clipPath><clipPath id="0d975d0d99"><path d="M 68.785156 97 L 143 97 L 143 236.988281 L 68.785156 236.988281 Z M 68.785156 97 " clip-rule="nonzero"/></clipPath></defs><path fill="#207b91" d="M 226.3125 50.863281 C 225.558594 48.605469 224.320312 46.660156 222.589844 45.023438 C 220.914062 43.550781 219.015625 42.453125 216.898438 41.734375 C 211.949219 39.898438 206.847656 39.230469 201.589844 39.730469 L 201.589844 39.949219 C 200.238281 38.40625 198.761719 36.992188 197.15625 35.714844 C 195.554688 34.433594 193.847656 33.304688 192.042969 32.328125 C 190.234375 31.351562 188.355469 30.546875 186.40625 29.90625 C 184.453125 29.265625 182.460938 28.800781 180.425781 28.515625 C 180.425781 28.515625 178.816406 17.28125 178.171875 12.046875 L 160.371094 13.390625 C 160.089844 16.378906 159.164062 29.4375 159.285156 29.4375 C 156.097656 30.277344 153.109375 31.570312 150.3125 33.308594 C 147.519531 35.050781 145.042969 37.164062 142.886719 39.648438 C 140.328125 39.550781 137.777344 39.691406 135.242188 40.070312 C 132.980469 40.390625 130.828125 41.066406 128.789062 42.09375 C 126.75 43.125 124.933594 44.457031 123.335938 46.085938 C 122.277344 47.308594 121.402344 48.648438 120.707031 50.105469 C 120.011719 51.5625 119.527344 53.085938 119.242188 54.675781 C 118.960938 56.265625 118.898438 57.863281 119.050781 59.46875 C 119.199219 61.074219 119.5625 62.632812 120.136719 64.140625 C 120.890625 66.394531 122.128906 68.339844 123.859375 69.976562 C 125.539062 71.445312 127.4375 72.542969 129.550781 73.265625 C 132.152344 74.257812 134.835938 74.925781 137.597656 75.273438 C 137.878906 94.835938 138.167969 114.394531 138.460938 133.945312 C 161.46875 135.753906 184.480469 135.875 207.503906 134.304688 C 209.515625 118.039062 209.09375 99.183594 208.914062 75.375 C 209.65625 75.375 210.402344 75.214844 211.164062 75.09375 C 213.429688 74.773438 215.582031 74.097656 217.621094 73.066406 C 219.660156 72.035156 221.476562 70.707031 223.074219 69.074219 C 224.148438 67.847656 225.039062 66.5 225.746094 65.027344 C 226.453125 63.558594 226.949219 62.023438 227.234375 60.417969 C 227.519531 58.8125 227.585938 57.199219 227.425781 55.578125 C 227.269531 53.953125 226.898438 52.382812 226.3125 50.863281 Z M 137.476562 63.898438 C 137.476562 65.542969 137.476562 67.210938 137.476562 68.855469 C 135.480469 68.5625 133.535156 68.066406 131.644531 67.371094 C 130.285156 66.949219 129.066406 66.28125 127.980469 65.363281 C 126.996094 64.394531 126.292969 63.25 125.871094 61.933594 C 125.496094 60.949219 125.261719 59.933594 125.160156 58.890625 C 125.058594 57.84375 125.097656 56.800781 125.273438 55.765625 C 125.449219 54.730469 125.761719 53.734375 126.203125 52.78125 C 126.644531 51.824219 127.203125 50.945312 127.882812 50.140625 C 129.019531 49.035156 130.304688 48.140625 131.738281 47.453125 C 133.167969 46.765625 134.671875 46.324219 136.25 46.128906 C 137.277344 45.964844 138.308594 45.867188 139.347656 45.828125 C 137.253906 51.503906 137.398438 57.78125 137.476562 63.898438 Z M 218.546875 64.761719 C 217.410156 65.863281 216.128906 66.757812 214.699219 67.445312 C 213.273438 68.128906 211.773438 68.574219 210.199219 68.773438 L 208.914062 68.933594 L 208.914062 67.953125 C 208.914062 60.371094 208.550781 52.425781 205.351562 45.644531 C 208.578125 45.730469 211.703125 46.332031 214.726562 47.453125 C 216.078125 47.882812 217.296875 48.550781 218.386719 49.457031 C 219.378906 50.425781 220.089844 51.570312 220.519531 52.886719 C 220.898438 53.875 221.144531 54.894531 221.25 55.949219 C 221.359375 57 221.324219 58.046875 221.152344 59.09375 C 220.976562 60.136719 220.671875 61.136719 220.230469 62.101562 C 219.789062 63.0625 219.226562 63.949219 218.546875 64.761719 Z M 218.546875 64.761719 " fill-opacity="1" fill-rule="nonzero"/><g clip-path="url(#c04239af48)"><path fill="#a8969f" d="M 281.695312 127.246094 C 279.234375 128.300781 276.691406 129.105469 274.070312 129.652344 C 275.890625 130.214844 277.613281 130.984375 279.238281 131.96875 C 280.867188 132.953125 282.347656 134.121094 283.6875 135.46875 C 285.027344 136.816406 286.179688 138.308594 287.148438 139.941406 C 288.121094 141.574219 288.875 143.300781 289.421875 145.117188 C 290.417969 148.101562 291.214844 151.136719 291.8125 154.226562 L 242.085938 154.226562 C 242.402344 151.886719 242.980469 149.613281 243.816406 147.40625 C 244.75 144.574219 246.019531 141.898438 247.617188 139.382812 C 249 137.289062 250.679688 135.46875 252.652344 133.921875 C 254.628906 132.375 256.800781 131.179688 259.164062 130.335938 C 243.492188 127.90625 228.988281 115.992188 227.539062 90.660156 C 227.304688 86.699219 227.386719 82.75 227.78125 78.804688 L 306.015625 78.804688 C 307.484375 95.011719 304.667969 108.128906 295.957031 117.476562 C 291.882812 121.71875 287.128906 124.976562 281.695312 127.246094 Z M 281.695312 127.246094 " fill-opacity="1" fill-rule="nonzero"/></g><path fill="#01a5bc" d="M 291.070312 203.089844 C 290.566406 210.628906 287.648438 218.492188 281.375 222.726562 C 274.332031 227.460938 264.714844 226.515625 256.992188 223.007812 C 250.957031 220.238281 245.121094 215.542969 243.390625 209.085938 C 239.269531 193.78125 256.871094 181.984375 269.683594 178.996094 C 284.109375 175.789062 291.914062 190.511719 291.070312 203.089844 Z M 291.070312 203.089844 " fill-opacity="1" fill-rule="nonzero"/><g clip-path="url(#43124c523e)"><path fill="#c8b4c1" d="M 229.53125 236.988281 L 154.71875 236.988281 C 153.347656 219.394531 152.585938 196.167969 165.417969 182.589844 C 169.300781 178.578125 174.148438 175.066406 176.664062 170.011719 C 179.179688 164.957031 178.976562 159.621094 178.457031 154.226562 L 205.855469 154.226562 C 205.3125 159.621094 205.230469 165.195312 207.625 170.011719 C 210.019531 174.824219 215.007812 178.476562 218.871094 182.589844 C 231.664062 196.167969 230.839844 219.394531 229.53125 236.988281 Z M 229.53125 236.988281 " fill-opacity="1" fill-rule="nonzero"/></g><g clip-path="url(#0d975d0d99)"><path fill="#dbdbdb" d="M 137.65625 201.363281 C 134.136719 213.117188 130.617188 224.992188 127.78125 236.988281 L 83.84375 236.988281 C 81.007812 224.953125 77.46875 213.117188 73.949219 201.363281 C 69.421875 186.320312 65.195312 168.886719 73.949219 155.847656 C 80.386719 146.300781 96.078125 139.660156 94.6875 126.582031 C 93.742188 116.976562 92.777344 107.347656 91.8125 97.757812 C 101.113281 97.195312 110.414062 97.195312 119.714844 97.757812 C 118.769531 107.347656 117.804688 116.976562 116.835938 126.582031 C 115.589844 139.660156 131.222656 146.382812 137.636719 155.847656 C 146.410156 168.886719 142.203125 186.320312 137.65625 201.363281 Z M 137.65625 201.363281 " fill-opacity="1" fill-rule="nonzero"/></g><g fill="#207b91" fill-opacity="1"><g transform="translate(66.519886, 313.131426)"><g><path d="M 18.125 -18.015625 L 10.296875 -10.078125 L 10.296875 0 L 6.234375 0 L 6.234375 -38.328125 L 10.296875 -38.328125 L 10.296875 -15.171875 L 32.796875 -38.328125 L 37.453125 -38.328125 L 20.859375 -20.96875 L 38.59375 0 L 33.78125 0 Z M 18.125 -18.015625 "/></g></g></g><g fill="#207b91" fill-opacity="1"><g transform="translate(112.839839, 313.131426)"><g><path d="M 6.234375 -38.328125 L 10.296875 -38.328125 L 10.296875 0 L 6.234375 0 Z M 6.234375 -38.328125 "/></g></g></g><g fill="#207b91" fill-opacity="1"><g transform="translate(136.767059, 313.131426)"><g><path d="M 19.375 -13.25 L 19.375 0 L 15.390625 0 L 15.390625 -13.25 L 0.0625 -38.328125 L 4.375 -38.328125 L 17.515625 -16.8125 L 30.65625 -38.328125 L 34.71875 -38.328125 Z M 19.375 -13.25 "/></g></g></g><g fill="#207b91" fill-opacity="1"><g transform="translate(178.926015, 313.131426)"><g><path d="M 23 0.328125 C 19.195312 0.328125 15.753906 -0.519531 12.671875 -2.21875 C 9.585938 -3.914062 7.175781 -6.238281 5.4375 -9.1875 C 3.707031 -12.144531 2.84375 -15.46875 2.84375 -19.15625 C 2.84375 -22.84375 3.707031 -26.164062 5.4375 -29.125 C 7.175781 -32.082031 9.585938 -34.410156 12.671875 -36.109375 C 15.753906 -37.804688 19.195312 -38.65625 23 -38.65625 C 26.789062 -38.65625 30.207031 -37.8125 33.25 -36.125 C 36.300781 -34.445312 38.703125 -32.117188 40.453125 -29.140625 C 42.210938 -26.171875 43.09375 -22.84375 43.09375 -19.15625 C 43.09375 -15.46875 42.210938 -12.132812 40.453125 -9.15625 C 38.703125 -6.1875 36.300781 -3.863281 33.25 -2.1875 C 30.207031 -0.507812 26.789062 0.328125 23 0.328125 Z M 23 -3.28125 C 26.03125 -3.28125 28.765625 -3.960938 31.203125 -5.328125 C 33.648438 -6.703125 35.566406 -8.601562 36.953125 -11.03125 C 38.335938 -13.457031 39.03125 -16.164062 39.03125 -19.15625 C 39.03125 -22.15625 38.335938 -24.867188 36.953125 -27.296875 C 35.566406 -29.722656 33.648438 -31.617188 31.203125 -32.984375 C 28.765625 -34.359375 26.03125 -35.046875 23 -35.046875 C 19.96875 -35.046875 17.21875 -34.359375 14.75 -32.984375 C 12.289062 -31.617188 10.359375 -29.722656 8.953125 -27.296875 C 7.546875 -24.867188 6.84375 -22.15625 6.84375 -19.15625 C 6.84375 -16.164062 7.546875 -13.457031 8.953125 -11.03125 C 10.359375 -8.601562 12.289062 -6.703125 14.75 -5.328125 C 17.21875 -3.960938 19.96875 -3.28125 23 -3.28125 Z M 23 -3.28125 "/></g></g></g><g fill="#207b91" fill-opacity="1"><g transform="translate(232.253968, 313.131426)"><g><path d="M 46.046875 -38.328125 L 46.046875 0 L 42.15625 0 L 42.15625 -30.65625 L 27.09375 -4.875 L 25.1875 -4.875 L 10.125 -30.5 L 10.125 0 L 6.234375 0 L 6.234375 -38.328125 L 9.578125 -38.328125 L 26.21875 -9.90625 L 42.703125 -38.328125 Z M 46.046875 -38.328125 "/></g></g></g><g fill="#207b91" fill-opacity="1"><g transform="translate(291.932912, 313.131426)"><g><path d="M 6.234375 -38.328125 L 10.296875 -38.328125 L 10.296875 0 L 6.234375 0 Z M 6.234375 -38.328125 "/></g></g></g><g fill="#a8969f" fill-opacity="1"><g transform="translate(86.750406, 362.585074)"><g><path d="M 17.15625 -7.53125 C 17.039062 -4.957031 16.316406 -3.003906 14.984375 -1.671875 C 13.648438 -0.347656 11.765625 0.3125 9.328125 0.3125 C 6.765625 0.3125 4.800781 -0.523438 3.4375 -2.203125 C 2.082031 -3.890625 1.40625 -6.296875 1.40625 -9.421875 L 1.40625 -13.21875 C 1.40625 -16.332031 2.109375 -18.726562 3.515625 -20.40625 C 4.921875 -22.09375 6.878906 -22.9375 9.390625 -22.9375 C 11.847656 -22.9375 13.71875 -22.25 15 -20.875 C 16.28125 -19.5 17.007812 -17.519531 17.1875 -14.9375 L 12.609375 -14.9375 C 12.566406 -16.53125 12.316406 -17.628906 11.859375 -18.234375 C 11.410156 -18.835938 10.585938 -19.140625 9.390625 -19.140625 C 8.160156 -19.140625 7.289062 -18.710938 6.78125 -17.859375 C 6.28125 -17.003906 6.015625 -15.597656 5.984375 -13.640625 L 5.984375 -9.375 C 5.984375 -7.125 6.234375 -5.578125 6.734375 -4.734375 C 7.234375 -3.898438 8.097656 -3.484375 9.328125 -3.484375 C 10.523438 -3.484375 11.351562 -3.773438 11.8125 -4.359375 C 12.269531 -4.941406 12.53125 -6 12.59375 -7.53125 Z M 17.15625 -7.53125 "/></g></g></g><g fill="#a8969f" fill-opacity="1"><g transform="translate(113.903142, 362.585074)"><g><path d="M 13.5 -9.796875 L 6.390625 -9.796875 L 6.390625 -3.796875 L 14.8125 -3.796875 L 14.8125 0 L 1.8125 0 L 1.8125 -22.625 L 14.78125 -22.625 L 14.78125 -18.8125 L 6.390625 -18.8125 L 6.390625 -13.46875 L 13.5 -13.46875 Z M 13.5 -9.796875 "/></g></g></g><g fill="#a8969f" fill-opacity="1"><g transform="translate(138.523623, 362.585074)"><g><path d="M 8.671875 -8.265625 L 6.40625 -8.265625 L 6.40625 0 L 1.828125 0 L 1.828125 -22.625 L 9.125 -22.625 C 11.414062 -22.625 13.179688 -22.03125 14.421875 -20.84375 C 15.671875 -19.65625 16.296875 -17.972656 16.296875 -15.796875 C 16.296875 -12.785156 15.203125 -10.679688 13.015625 -9.484375 L 16.984375 -0.21875 L 16.984375 0 L 12.078125 0 Z M 6.40625 -12.078125 L 9 -12.078125 C 9.90625 -12.078125 10.585938 -12.378906 11.046875 -12.984375 C 11.503906 -13.585938 11.734375 -14.398438 11.734375 -15.421875 C 11.734375 -17.679688 10.847656 -18.8125 9.078125 -18.8125 L 6.40625 -18.8125 Z M 6.40625 -12.078125 "/></g></g></g><g fill="#a8969f" fill-opacity="1"><g transform="translate(165.148157, 362.585074)"><g><path d="M 12.625 -4.625 L 6.390625 -4.625 L 5.171875 0 L 0.34375 0 L 7.40625 -22.625 L 11.59375 -22.625 L 18.71875 0 L 13.828125 0 Z M 7.375 -8.4375 L 11.609375 -8.4375 L 9.5 -16.5 Z M 7.375 -8.4375 "/></g></g></g><g fill="#a8969f" fill-opacity="1"><g transform="translate(193.155344, 362.585074)"><g><path d="M 7.78125 -22.625 L 12.0625 -6.265625 L 16.3125 -22.625 L 22.28125 -22.625 L 22.28125 0 L 17.703125 0 L 17.703125 -6.125 L 18.125 -15.5625 L 13.59375 0 L 10.484375 0 L 5.96875 -15.5625 L 6.390625 -6.125 L 6.390625 0 L 1.8125 0 L 1.8125 -22.625 Z M 7.78125 -22.625 "/></g></g></g><g fill="#a8969f" fill-opacity="1"><g transform="translate(226.289192, 362.585074)"><g><path d="M 6.59375 0 L 2.015625 0 L 2.015625 -22.625 L 6.59375 -22.625 Z M 6.59375 0 "/></g></g></g><g fill="#a8969f" fill-opacity="1"><g transform="translate(243.903227, 362.585074)"><g><path d="M 17.15625 -7.53125 C 17.039062 -4.957031 16.316406 -3.003906 14.984375 -1.671875 C 13.648438 -0.347656 11.765625 0.3125 9.328125 0.3125 C 6.765625 0.3125 4.800781 -0.523438 3.4375 -2.203125 C 2.082031 -3.890625 1.40625 -6.296875 1.40625 -9.421875 L 1.40625 -13.21875 C 1.40625 -16.332031 2.109375 -18.726562 3.515625 -20.40625 C 4.921875 -22.09375 6.878906 -22.9375 9.390625 -22.9375 C 11.847656 -22.9375 13.71875 -22.25 15 -20.875 C 16.28125 -19.5 17.007812 -17.519531 17.1875 -14.9375 L 12.609375 -14.9375 C 12.566406 -16.53125 12.316406 -17.628906 11.859375 -18.234375 C 11.410156 -18.835938 10.585938 -19.140625 9.390625 -19.140625 C 8.160156 -19.140625 7.289062 -18.710938 6.78125 -17.859375 C 6.28125 -17.003906 6.015625 -15.597656 5.984375 -13.640625 L 5.984375 -9.375 C 5.984375 -7.125 6.234375 -5.578125 6.734375 -4.734375 C 7.234375 -3.898438 8.097656 -3.484375 9.328125 -3.484375 C 10.523438 -3.484375 11.351562 -3.773438 11.8125 -4.359375 C 12.269531 -4.941406 12.53125 -6 12.59375 -7.53125 Z M 17.15625 -7.53125 "/></g></g></g><g fill="#a8969f" fill-opacity="1"><g transform="translate(271.055959, 362.585074)"><g><path d="M 11.375 -5.9375 C 11.375 -6.851562 11.140625 -7.546875 10.671875 -8.015625 C 10.203125 -8.492188 9.34375 -8.988281 8.09375 -9.5 C 5.820312 -10.351562 4.1875 -11.359375 3.1875 -12.515625 C 2.195312 -13.671875 1.703125 -15.035156 1.703125 -16.609375 C 1.703125 -18.515625 2.378906 -20.046875 3.734375 -21.203125 C 5.085938 -22.359375 6.804688 -22.9375 8.890625 -22.9375 C 10.273438 -22.9375 11.507812 -22.644531 12.59375 -22.0625 C 13.6875 -21.476562 14.523438 -20.648438 15.109375 -19.578125 C 15.691406 -18.515625 15.984375 -17.300781 15.984375 -15.9375 L 11.4375 -15.9375 C 11.4375 -17 11.210938 -17.804688 10.765625 -18.359375 C 10.316406 -18.910156 9.664062 -19.1875 8.8125 -19.1875 C 8.007812 -19.1875 7.382812 -18.953125 6.9375 -18.484375 C 6.5 -18.015625 6.28125 -17.378906 6.28125 -16.578125 C 6.28125 -15.960938 6.523438 -15.398438 7.015625 -14.890625 C 7.515625 -14.390625 8.398438 -13.867188 9.671875 -13.328125 C 11.878906 -12.535156 13.476562 -11.554688 14.46875 -10.390625 C 15.46875 -9.234375 15.96875 -7.757812 15.96875 -5.96875 C 15.96875 -4 15.34375 -2.457031 14.09375 -1.34375 C 12.84375 -0.238281 11.140625 0.3125 8.984375 0.3125 C 7.523438 0.3125 6.191406 0.015625 4.984375 -0.578125 C 3.785156 -1.179688 2.847656 -2.039062 2.171875 -3.15625 C 1.492188 -4.28125 1.15625 -5.609375 1.15625 -7.140625 L 5.734375 -7.140625 C 5.734375 -5.828125 5.984375 -4.875 6.484375 -4.28125 C 6.992188 -3.695312 7.828125 -3.40625 8.984375 -3.40625 C 10.578125 -3.40625 11.375 -4.25 11.375 -5.9375 Z M 11.375 -5.9375 "/></g></g></g></svg>